<?xml version="1.0" encoding="UTF-8"?>
<svg version="1.1" xmlns="http://www.w3.org/2000/svg" width="500" height="500">
<path d="M0 0 C1.72959961 0.00483398 1.72959961 0.00483398 3.49414062 0.00976562 C4.63560547 -0.00634766 5.77707031 -0.02246094 6.953125 -0.0390625 C8.05591797 -0.03970703 9.15871094 -0.04035156 10.29492188 -0.04101562 C11.30337158 -0.04399658 12.31182129 -0.04697754 13.35083008 -0.05004883 C17.44063222 0.48785098 20.06262435 2.24183612 22.99414062 5.07226562 C24.69857356 8.30171751 24.57335329 10.73156616 24.18164062 14.32226562 C22.35048856 16.93819715 21.27195696 17.29216018 18.18164062 18.32226562 C18.83555841 21.43308102 18.83555841 21.43308102 21.18164062 22.38476562 C21.84164062 22.69414062 22.50164062 23.00351563 23.18164062 23.32226562 C24.60411809 26.16722056 24.38957664 28.65344522 24.43164062 31.82226562 C24.45742188 32.98757812 24.48320312 34.15289062 24.50976562 35.35351562 C24.40148437 36.33320313 24.29320312 37.31289062 24.18164062 38.32226562 C21.18164062 40.32226562 21.18164062 40.32226562 18.74414062 40.19726562 C15.35462513 39.03987009 14.1456924 38.37745728 12.18164062 35.32226562 C11.84270696 31.58861541 12.00242578 28.08577746 12.18164062 24.32226562 C8.55164063 24.32226562 4.92164063 24.32226562 1.18164062 24.32226562 C1.51164062 28.61226562 1.84164063 32.90226562 2.18164062 37.32226562 C-2.81835938 40.32226562 -2.81835938 40.32226562 -5.44335938 40.19726562 C-8.16441567 39.1947712 -9.13400448 38.68048216 -10.81835938 36.32226562 C-11.10432865 33.68778544 -11.21522366 31.2946777 -11.18164062 28.66210938 C-11.18213913 27.91643204 -11.18263763 27.1707547 -11.18315125 26.40248108 C-11.18081298 24.82810802 -11.17109893 23.25373108 -11.15454102 21.67944336 C-11.13091182 19.26512385 -11.13398594 16.85190603 -11.140625 14.4375 C-11.13504934 12.90819652 -11.12794016 11.3788977 -11.11914062 9.84960938 C-11.12005203 9.12563461 -11.12096344 8.40165985 -11.12190247 7.65574646 C-11.00310193 -0.70553912 -7.22565296 0.04661712 0 0 Z M1.18164062 10.32226562 C1.18164062 11.64226562 1.18164062 12.96226562 1.18164062 14.32226562 C2.19000124 15.5549391 2.19000124 15.5549391 4.24804688 15.41992188 C5.07175781 15.40832031 5.89546875 15.39671875 6.74414062 15.38476562 C7.98357422 15.37123047 7.98357422 15.37123047 9.24804688 15.35742188 C10.20517578 15.34001953 10.20517578 15.34001953 11.18164062 15.32226562 C11.51164062 13.67226562 11.84164063 12.02226562 12.18164062 10.32226562 C8.55164063 10.32226562 4.92164063 10.32226562 1.18164062 10.32226562 Z " fill="#F8FAF8" transform="translate(391.818359375,213.677734375)"/>
<path d="M0 0 C1.04450317 0.00326294 1.04450317 0.00326294 2.11010742 0.0065918 C4.23278268 0.00974873 6.35405999 -0.01369198 8.4765625 -0.0390625 C9.82486803 -0.04133583 11.17317731 -0.04203883 12.52148438 -0.04101562 C14.36407837 -0.04548706 14.36407837 -0.04548706 16.24389648 -0.05004883 C19.30664062 0.32226562 19.30664062 0.32226562 21.25024414 1.64575195 C22.30664062 3.32226562 22.30664062 3.32226562 21.99414062 6.50976562 C21.76726562 7.43789062 21.54039062 8.36601562 21.30664062 9.32226562 C18.58162155 10.23060532 16.68430092 10.50586548 13.85742188 10.63867188 C12.58608398 10.70151367 12.58608398 10.70151367 11.2890625 10.765625 C10.40798828 10.80494141 9.52691406 10.84425781 8.61914062 10.88476562 C7.72646484 10.92794922 6.83378906 10.97113281 5.9140625 11.015625 C3.71173954 11.12161915 1.50930589 11.22368613 -0.69335938 11.32226562 C-0.36335937 12.31226563 -0.03335938 13.30226562 0.30664062 14.32226562 C1.5828125 14.37125 2.85898438 14.42023438 4.17382812 14.47070312 C5.84312134 14.54572754 7.51239109 14.62127551 9.18164062 14.69726562 C10.44427734 14.74367187 10.44427734 14.74367187 11.73242188 14.79101562 C12.94091797 14.84902344 12.94091797 14.84902344 14.17382812 14.90820312 C14.91745605 14.93962402 15.66108398 14.97104492 16.42724609 15.00341797 C18.30664062 15.32226562 18.30664062 15.32226562 20.30664062 17.32226562 C19.73845881 22.89044744 19.73845881 22.89044744 18.30664062 24.32226562 C16.89093939 24.40878173 15.47104562 24.42931466 14.05273438 24.41992188 C13.19873047 24.41669922 12.34472656 24.41347656 11.46484375 24.41015625 C10.1180957 24.39758789 10.1180957 24.39758789 8.74414062 24.38476562 C7.84244141 24.38025391 6.94074219 24.37574219 6.01171875 24.37109375 C3.77662749 24.35926787 1.54166626 24.34278783 -0.69335938 24.32226562 C-0.69335938 25.97226563 -0.69335938 27.62226563 -0.69335938 29.32226562 C-0.06768066 29.30655518 0.55799805 29.29084473 1.20263672 29.2746582 C4.02887994 29.21241888 6.85497924 29.17331101 9.68164062 29.13476562 C10.66648438 29.10962891 11.65132812 29.08449219 12.66601562 29.05859375 C14.07753906 29.0440918 14.07753906 29.0440918 15.51757812 29.02929688 C16.38688965 29.01358643 17.25620117 28.99787598 18.15185547 28.98168945 C18.86293457 29.09407959 19.57401367 29.20646973 20.30664062 29.32226562 C22.30664062 32.32226562 22.30664062 32.32226562 21.99414062 34.94726562 C21.30664062 37.32226562 21.30664062 37.32226562 20.30664062 38.32226562 C17.93095543 38.41066233 15.58455389 38.43756868 13.20898438 38.41992188 C12.14569664 38.41779945 12.14569664 38.41779945 11.06092834 38.41563416 C8.7886235 38.41002005 6.51641587 38.39746525 4.24414062 38.38476562 C2.70703267 38.37975244 1.16992317 38.37518922 -0.3671875 38.37109375 C-4.14261579 38.36004605 -7.91797108 38.34277204 -11.69335938 38.32226562 C-13.21600047 35.27698344 -12.85621475 32.10081316 -12.86132812 28.75976562 C-12.86465652 28.01267334 -12.86798492 27.26558105 -12.87141418 26.49584961 C-12.87647904 24.91553361 -12.87882265 23.33520692 -12.87866211 21.75488281 C-12.88085072 19.3318532 -12.89901638 16.90927727 -12.91796875 14.48632812 C-12.92090229 12.95247552 -12.92288735 11.41862075 -12.92382812 9.88476562 C-12.93101364 9.15765381 -12.93819916 8.43054199 -12.94560242 7.68139648 C-12.90389459 -1.45691818 -7.5328325 0.03117992 0 0 Z " fill="#F9FBF9" transform="translate(129.693359375,213.677734375)"/>
<path d="M0 0 C1.59134766 -0.00386719 1.59134766 -0.00386719 3.21484375 -0.0078125 C4.31699219 -0.00007812 5.41914063 0.00765625 6.5546875 0.015625 C7.66457031 0.00789062 8.77445313 0.00015625 9.91796875 -0.0078125 C10.97628906 -0.00523437 12.03460938 -0.00265625 13.125 0 C14.09453613 0.00225586 15.06407227 0.00451172 16.06298828 0.00683594 C18.4296875 0.265625 18.4296875 0.265625 20.4296875 2.265625 C20.7421875 5.265625 20.7421875 5.265625 20.4296875 8.265625 C17.22562288 10.40166808 16.43368003 10.50771408 12.76171875 10.4609375 C11.86904297 10.45449219 10.97636719 10.44804687 10.05664062 10.44140625 C8.66348633 10.41626953 8.66348633 10.41626953 7.2421875 10.390625 C6.30181641 10.38160156 5.36144531 10.37257812 4.39257812 10.36328125 C2.07135782 10.33971556 -0.24934894 10.30681616 -2.5703125 10.265625 C-2.2403125 11.585625 -1.9103125 12.905625 -1.5703125 14.265625 C-0.55710938 14.27980469 0.45609375 14.29398438 1.5 14.30859375 C13.70274688 14.67178883 13.70274688 14.67178883 17.3046875 17.703125 C20.56400193 21.63347475 20.71235343 24.03834865 20.6484375 29.0078125 C20.34858617 32.10270655 19.43281241 33.90479922 17.4296875 36.265625 C14.07761215 38.4229948 11.3246404 38.51133038 7.38671875 38.49609375 C5.65325195 38.49319336 5.65325195 38.49319336 3.88476562 38.49023438 C2.08168945 38.47186523 2.08168945 38.47186523 0.2421875 38.453125 C-0.97146484 38.45248047 -2.18511719 38.45183594 -3.43554688 38.45117188 C-12.43006538 38.40587212 -12.43006538 38.40587212 -13.5703125 37.265625 C-13.61124187 34.93265067 -13.61272973 32.59857275 -13.5703125 30.265625 C-11.22092362 29.09093056 -9.61958045 29.06527611 -7 28.94921875 C-6.10410156 28.90732422 -5.20820313 28.86542969 -4.28515625 28.82226562 C-2.87943359 28.76329102 -2.87943359 28.76329102 -1.4453125 28.703125 C-0.50042969 28.65994141 0.44445312 28.61675781 1.41796875 28.57226562 C3.75505842 28.46603428 6.0922558 28.36399324 8.4296875 28.265625 C8.4296875 27.275625 8.4296875 26.285625 8.4296875 25.265625 C7.01816406 25.22695312 7.01816406 25.22695312 5.578125 25.1875 C-6.96378659 24.61623281 -6.96378659 24.61623281 -11.5703125 20.265625 C-14.3991423 16.0223803 -14.22299251 12.24827971 -13.5703125 7.265625 C-10.22182183 1.52535528 -6.44943587 0.01497133 0 0 Z " fill="#F9FBF9" transform="translate(210.5703125,213.734375)"/>
<path d="M0 0 C1.01255859 -0.00257813 2.02511719 -0.00515625 3.06835938 -0.0078125 C4.11443359 -0.00007812 5.16050781 0.00765625 6.23828125 0.015625 C7.29595703 0.00789062 8.35363281 0.00015625 9.44335938 -0.0078125 C10.95639648 -0.00394531 10.95639648 -0.00394531 12.5 0 C13.42127686 0.00225586 14.34255371 0.00451172 15.29174805 0.00683594 C17.55078125 0.265625 17.55078125 0.265625 19.55078125 2.265625 C19.86328125 5.265625 19.86328125 5.265625 19.55078125 8.265625 C16.47386359 10.31690344 15.61433126 10.53823372 12.1015625 10.6796875 C10.83022461 10.73769531 10.83022461 10.73769531 9.53320312 10.796875 C8.2115918 10.84328125 8.2115918 10.84328125 6.86328125 10.890625 C5.97060547 10.92929688 5.07792969 10.96796875 4.15820312 11.0078125 C1.95593505 11.10202718 -0.24632597 11.18764088 -2.44921875 11.265625 C-2.44921875 12.255625 -2.44921875 13.245625 -2.44921875 14.265625 C-1.43601563 14.27980469 -0.4228125 14.29398438 0.62109375 14.30859375 C12.82384063 14.67178883 12.82384063 14.67178883 16.42578125 17.703125 C19.68588368 21.63442499 19.82936448 24.03830123 19.7734375 29.0078125 C19.47162431 32.06830411 18.48616412 33.90015705 16.55078125 36.265625 C13.02632734 38.61526094 11.55567731 38.51153882 7.38671875 38.49609375 C6.18273437 38.49416016 4.97875 38.49222656 3.73828125 38.49023438 C1.85109375 38.47186523 1.85109375 38.47186523 -0.07421875 38.453125 C-1.34007812 38.45248047 -2.6059375 38.45183594 -3.91015625 38.45117188 C-13.30905281 38.40579094 -13.30905281 38.40579094 -14.44921875 37.265625 C-14.63671875 34.328125 -14.63671875 34.328125 -14.44921875 31.265625 C-12.01007383 28.82648008 -11.23475444 28.97899977 -7.87890625 28.8515625 C-6.98300781 28.81289062 -6.08710938 28.77421875 -5.1640625 28.734375 C-4.22691406 28.7034375 -3.28976563 28.6725 -2.32421875 28.640625 C-0.90689453 28.58261719 -0.90689453 28.58261719 0.5390625 28.5234375 C2.876105 28.42901154 5.21313626 28.34344106 7.55078125 28.265625 C7.55078125 27.275625 7.55078125 26.285625 7.55078125 25.265625 C6.13925781 25.22695312 6.13925781 25.22695312 4.69921875 25.1875 C-7.98077712 24.60994325 -7.98077712 24.60994325 -12.44921875 20.265625 C-14.79668414 17.27794177 -14.87055414 14.0463431 -14.765625 10.296875 C-14.23176182 6.86960518 -12.70587852 4.82723879 -10.44921875 2.265625 C-6.87795691 0.48699507 -3.96612088 0.00967599 0 0 Z " fill="#F9FAF9" transform="translate(171.44921875,213.734375)"/>
<path d="M0 0 C0.66 0.33 1.32 0.66 2 1 C2.6328125 3.94140625 2.6328125 3.94140625 3.125 7.5625 C3.29257813 8.76003906 3.46015625 9.95757812 3.6328125 11.19140625 C3.75398438 12.11824219 3.87515625 13.04507813 4 14 C4.99 13.67 5.98 13.34 7 13 C7.04898438 12.22914063 7.09796875 11.45828125 7.1484375 10.6640625 C7.22320312 9.66117188 7.29796875 8.65828125 7.375 7.625 C7.44460937 6.62726563 7.51421875 5.62953125 7.5859375 4.6015625 C8 2 8 2 10 0 C14.05261287 -0.34490322 15.54754176 -0.30163882 19 2 C19.27961076 4.60152912 19.37228329 6.96198722 19.328125 9.5625 C19.32625183 10.30959229 19.32437866 11.05668457 19.32244873 11.82641602 C19.31572288 13.40678364 19.30179772 14.98713446 19.28125 16.56738281 C19.25012344 18.99039121 19.24028281 21.41274909 19.234375 23.8359375 C19.22520387 25.36979962 19.21482774 26.90365511 19.203125 28.4375 C19.19675018 29.52816772 19.19675018 29.52816772 19.19024658 30.64086914 C19.11720696 35.76558607 19.11720696 35.76558607 18 38 C16.52093108 38.02689216 15.04172517 38.04634621 13.5625 38.0625 C12.32693359 38.07990234 12.32693359 38.07990234 11.06640625 38.09765625 C9 38 9 38 8 37 C7.76518307 34.81707226 7.58636677 32.62796826 7.4375 30.4375 C7.31181641 28.64119141 7.31181641 28.64119141 7.18359375 26.80859375 C7.12300781 25.88175781 7.06242187 24.95492187 7 24 C6.01 24.33 5.02 24.66 4 25 C3.86722656 25.85464844 3.73445313 26.70929688 3.59765625 27.58984375 C3.42105469 28.69457031 3.24445313 29.79929688 3.0625 30.9375 C2.88847656 32.03964844 2.71445313 33.14179688 2.53515625 34.27734375 C2 37 2 37 1 38 C-4.73611111 38.27314815 -4.73611111 38.27314815 -7 38 C-9.45095154 35.54904846 -9.25451426 34.16669818 -9.30354309 30.81898499 C-9.30263168 30.116884 -9.30172028 29.41478302 -9.30078125 28.69140625 C-9.30506638 27.96888168 -9.3093515 27.24635712 -9.31376648 26.50193787 C-9.31951237 24.97290088 -9.32000812 23.44383656 -9.31567383 21.91479492 C-9.31251671 19.57488326 -9.33595758 17.23623933 -9.36132812 14.89648438 C-9.36360139 13.41145993 -9.36430449 11.92643208 -9.36328125 10.44140625 C-9.372491 9.7413295 -9.38170074 9.04125275 -9.39118958 8.31996155 C-9.36376571 5.44054481 -9.31849519 3.46638256 -7.66870117 1.05053711 C-5.11247407 -0.5587453 -2.94369397 -0.25052715 0 0 Z " fill="#FAFBF9" transform="translate(93,214)"/>
<path d="M0 0 C1.08539063 -0.02449219 2.17078125 -0.04898438 3.2890625 -0.07421875 C9.57240998 -0.09726281 13.53573757 0.05099108 18.25 4.375 C21.0788298 8.6182447 20.90268001 12.39234529 20.25 17.375 C18.12387199 21.01979088 16.12899587 22.84174825 12.25 24.375 C9.84162245 24.66378735 7.42189532 24.86545026 5 25 C3.73671875 25.07476562 2.4734375 25.14953125 1.171875 25.2265625 C-0.27445312 25.30003906 -0.27445312 25.30003906 -1.75 25.375 C-1.73839844 26.37402344 -1.72679687 27.37304688 -1.71484375 28.40234375 C-1.70582031 29.69269531 -1.69679688 30.98304688 -1.6875 32.3125 C-1.67589844 33.60027344 -1.66429687 34.88804687 -1.65234375 36.21484375 C-1.75 39.375 -1.75 39.375 -2.75 40.375 C-6.16083469 40.63242149 -8.81136541 40.8112184 -11.95166016 39.35180664 C-14.65736746 36.37758562 -14.28470138 33.31400791 -14.2109375 29.49609375 C-14.21002106 28.72822037 -14.20910461 27.96034698 -14.2081604 27.16920471 C-14.20212334 25.54771738 -14.18637391 23.92624127 -14.16162109 22.30493164 C-14.12508237 19.81810614 -14.12060189 17.33276916 -14.12109375 14.84570312 C-14.11126368 13.27082041 -14.09960716 11.69594782 -14.0859375 10.12109375 C-14.08371185 9.37524521 -14.08148621 8.62939667 -14.07919312 7.86094666 C-13.90173334 -1.74786286 -7.91078205 0.00926321 0 0 Z M-1.75 10.375 C-2.08 11.695 -2.41 13.015 -2.75 14.375 C-0.34454362 15.57772819 1.19996953 15.47571472 3.875 15.4375 C4.69226563 15.42847656 5.50953125 15.41945312 6.3515625 15.41015625 C6.97804688 15.39855469 7.60453125 15.38695312 8.25 15.375 C8.58 13.725 8.91 12.075 9.25 10.375 C5.62 10.375 1.99 10.375 -1.75 10.375 Z " fill="#FAFBF9" transform="translate(282.75,213.625)"/>
<path d="M0 0 C1.03769531 -0.020625 2.07539063 -0.04125 3.14453125 -0.0625 C8.7503433 -0.09113761 12.95433853 -0.01262214 17.75 3.25 C20.67558008 6.66317676 21.28846957 9.7596408 21.1015625 14.25390625 C20.50399206 17.64677841 18.99456842 19.70211152 16.75 22.25 C11.07372882 25.12810933 4.99730208 24.87137563 -1.25 25.25 C-1.25 29.54 -1.25 33.83 -1.25 38.25 C-2.9 38.25 -4.55 38.25 -6.25 38.25 C-6.25 38.91 -6.25 39.57 -6.25 40.25 C-12.125 38.375 -12.125 38.375 -13.25 37.25 C-13.33855161 34.5837397 -13.36524673 31.94352886 -13.34765625 29.27734375 C-13.3462413 28.47970108 -13.34482635 27.68205841 -13.34336853 26.86024475 C-13.33775316 24.30262565 -13.32519812 21.74509282 -13.3125 19.1875 C-13.30748698 17.45768355 -13.30292373 15.72786574 -13.29882812 13.99804688 C-13.28777875 9.74866447 -13.27050386 5.49934688 -13.25 1.25 C-9.29752919 -0.72623541 -4.34586136 0.02127717 0 0 Z M-2.25 10.25 C-1.92 11.9 -1.59 13.55 -1.25 15.25 C2.05 15.25 5.35 15.25 8.75 15.25 C9.08 13.93 9.41 12.61 9.75 11.25 C8.69021067 9.96387324 8.69021067 9.96387324 6.24609375 10.15234375 C5.23675781 10.16394531 4.22742188 10.17554688 3.1875 10.1875 C2.17558594 10.19652344 1.16367187 10.20554688 0.12109375 10.21484375 C-0.66136719 10.22644531 -1.44382812 10.23804688 -2.25 10.25 Z " fill="#F8F9F8" transform="translate(322.25,213.75)"/>
<path d="M0 0 C4.49642978 2.24821489 6.92166985 4.44917364 9 9 C9.43465609 12.32010383 9.41884036 15.59345441 9.375 18.9375 C9.38660156 19.81857422 9.39820313 20.69964844 9.41015625 21.60742188 C9.38253845 27.75238283 8.64023174 32.21864229 4.24609375 36.84765625 C1.11385185 38.45463253 -1.43188189 38.43375868 -4.9375 38.4375 C-6.14277344 38.45683594 -7.34804688 38.47617188 -8.58984375 38.49609375 C-12.65300158 37.90500435 -14.21674593 36.99237154 -17 34 C-19.24903658 29.26411331 -19.33522528 24.70295946 -19.3125 19.5625 C-19.32861328 18.83740234 -19.34472656 18.11230469 -19.36132812 17.36523438 C-19.36598016 12.18751814 -18.39713687 8.60180289 -16 4 C-11.37770849 -0.33339829 -6.0707617 -0.74717067 0 0 Z M-7 10 C-7 15.94 -7 21.88 -7 28 C-5.68 28.33 -4.36 28.66 -3 29 C-1.40587716 25.81175432 -1.89825265 22.37103338 -1.9375 18.875 C-1.94201172 18.12089844 -1.94652344 17.36679688 -1.95117188 16.58984375 C-1.96296501 14.72652873 -1.98090058 12.86325445 -2 11 C-3.65 10.67 -5.3 10.34 -7 10 Z " fill="#F9FBF9" transform="translate(367,214)"/>
<path d="M0 0 C0.66 0.33 1.32 0.66 2 1 C3.01587978 4.04763934 3.19804406 6.34718967 3.31640625 9.54296875 C3.37924805 11.15268555 3.37924805 11.15268555 3.44335938 12.79492188 C3.48267578 13.91447266 3.52199219 15.03402344 3.5625 16.1875 C3.60568359 17.31865234 3.64886719 18.44980469 3.69335938 19.61523438 C3.79949099 22.41003354 3.90154385 25.20492162 4 28 C4.99 28.33 5.98 28.66 7 29 C7.01981934 28.19256348 7.03963867 27.38512695 7.06005859 26.55322266 C7.15505899 22.91014125 7.26483912 19.26765314 7.375 15.625 C7.42140625 13.71847656 7.42140625 13.71847656 7.46875 11.7734375 C7.50742188 10.56171875 7.54609375 9.35 7.5859375 8.1015625 C7.6173584 6.98088379 7.6487793 5.86020508 7.68115234 4.70556641 C8 2 8 2 10 0 C13.5 -0.25 13.5 -0.25 17 0 C20.23346958 3.23346958 19.29589652 7.07443041 19.32226562 11.48046875 C19.31904297 12.72441406 19.31582031 13.96835938 19.3125 15.25 C19.32861328 16.47847656 19.34472656 17.70695312 19.36132812 18.97265625 C19.36197266 20.16246094 19.36261719 21.35226563 19.36328125 22.578125 C19.36626221 23.66512695 19.36924316 24.75212891 19.37231445 25.87207031 C18.84894432 30.26906579 17.30119302 33.63215344 14.24609375 36.84375 C9.31485605 39.38226541 3.36261511 38.67905304 -2 38 C-6.06563494 35.26351495 -7.46308033 32.54598145 -9 28 C-9.40987819 23.79920397 -9.32445815 19.59383675 -9.3125 15.375 C-9.32861328 14.2303125 -9.34472656 13.085625 -9.36132812 11.90625 C-9.36197266 10.81054688 -9.36261719 9.71484375 -9.36328125 8.5859375 C-9.36626221 7.5861084 -9.36924316 6.5862793 -9.37231445 5.55615234 C-9 3 -9 3 -7.66870117 1.16650391 C-5.13388714 -0.60545534 -3.00536387 -0.25577565 0 0 Z " fill="#F9FBF9" transform="translate(245,214)"/>
<path d="M0 0 C1.30130859 -0.02900391 2.60261719 -0.05800781 3.94335938 -0.08789062 C5.18794922 -0.09626953 6.43253906 -0.10464844 7.71484375 -0.11328125 C8.85945068 -0.12786377 10.00405762 -0.14244629 11.18334961 -0.1574707 C14.0625 0.3125 14.0625 0.3125 16.00219727 2.17114258 C17.0625 4.3125 17.0625 4.3125 16.375 7 C15.0625 9.3125 15.0625 9.3125 13.0625 10.3125 C10.7295134 10.35272391 8.39543334 10.35570247 6.0625 10.3125 C6.07035522 11.53151001 6.07035522 11.53151001 6.07836914 12.77514648 C6.09906994 16.43342322 6.11213803 20.09168767 6.125 23.75 C6.13337891 25.02939453 6.14175781 26.30878906 6.15039062 27.62695312 C6.15522461 29.44936523 6.15522461 29.44936523 6.16015625 31.30859375 C6.16801147 32.99746704 6.16801147 32.99746704 6.17602539 34.72045898 C6.0625 37.3125 6.0625 37.3125 5.0625 38.3125 C3.39820949 38.41073937 1.72968069 38.44223631 0.0625 38.4375 C-1.29875 38.44136719 -1.29875 38.44136719 -2.6875 38.4453125 C-4.9375 38.3125 -4.9375 38.3125 -5.9375 37.3125 C-6.09556531 35.38771187 -6.188635 33.4575079 -6.25390625 31.52734375 C-6.29580078 30.35751953 -6.33769531 29.18769531 -6.38085938 27.98242188 C-6.42017578 26.75072266 -6.45949219 25.51902344 -6.5 24.25 C-6.54318359 23.01443359 -6.58636719 21.77886719 -6.63085938 20.50585938 C-6.73734198 17.44152665 -6.83935424 14.37710927 -6.9375 11.3125 C-7.50339844 11.17972656 -8.06929688 11.04695312 -8.65234375 10.91015625 C-9.38582031 10.73355469 -10.11929687 10.55695313 -10.875 10.375 C-11.60589844 10.20097656 -12.33679688 10.02695313 -13.08984375 9.84765625 C-14.9375 9.3125 -14.9375 9.3125 -15.9375 8.3125 C-15.97842937 5.97952567 -15.97991723 3.64544775 -15.9375 1.3125 C-11.35579082 -0.97835459 -5.03023521 0.037261 0 0 Z " fill="#F8FAF9" transform="translate(436.9375,213.6875)"/>
<path d="M0 0 C0.99 0 1.98 0 3 0 C3 0.66 3 1.32 3 2 C3.62044189 1.97905273 4.24088379 1.95810547 4.88012695 1.93652344 C7.69075318 1.85338594 10.50112096 1.80134939 13.3125 1.75 C14.28896484 1.71648437 15.26542969 1.68296875 16.27148438 1.6484375 C17.20927734 1.63554687 18.14707031 1.62265625 19.11328125 1.609375 C19.97735596 1.58842773 20.84143066 1.56748047 21.73168945 1.54589844 C24 2 24 2 25.84838867 3.85644531 C27 6 27 6 26.3125 8.6875 C25 11 25 11 23 12 C20.69 12 18.38 12 16 12 C16 20.91 16 29.82 16 39 C11.64774551 41.17612725 10.5295153 41.10721485 6 40 C4.22509454 38.22509454 4.76500027 35.62215098 4.68359375 33.21484375 C4.64169922 32.04501953 4.59980469 30.87519531 4.55664062 29.66992188 C4.51732422 28.43822266 4.47800781 27.20652344 4.4375 25.9375 C4.39431641 24.70193359 4.35113281 23.46636719 4.30664062 22.19335938 C4.20015889 19.12905159 4.09953935 16.06454115 4 13 C-1.94 11.515 -1.94 11.515 -8 10 C-8 7.69 -8 5.38 -8 3 C-6.865625 2.690625 -5.73125 2.38125 -4.5625 2.0625 C-1.21224901 1.37075469 -1.21224901 1.37075469 0 0 Z " fill="#F8FAF9" transform="translate(53,212)"/>
<path d="M0 0 C0.99 0 1.98 0 3 0 C3.66 3.96 4.32 7.92 5 12 C6.65 8.04 8.3 4.08 10 0 C10.99 0 11.98 0 13 0 C14.65 3.96 16.3 7.92 18 12 C18.66 8.37 19.32 4.74 20 1 C21.32 0.67 22.64 0.34 24 0 C23.01 5.94 22.02 11.88 21 18 C19.35 18.33 17.7 18.66 16 19 C14.35 15.04 12.7 11.08 11 7 C9.68 10.96 8.36 14.92 7 19 C5.35 19 3.7 19 2 19 C0.82706111 12.6221448 -0.29530838 6.49678438 0 0 Z " fill="#FCFCFC" transform="translate(286,267)"/>
<path d="M0 0 C9.1796875 -0.1953125 9.1796875 -0.1953125 12 0 C12.66 0.66 13.32 1.32 14 2 C13.835 3.0725 13.67 4.145 13.5 5.25 C12.71568984 8.96384076 12.71568984 8.96384076 14.125 12.1875 C15 15 15 15 13.94140625 17.16015625 C12 19 12 19 9.08203125 19.390625 C8.00308594 19.34421875 6.92414063 19.2978125 5.8125 19.25 C2.9353125 19.12625 2.9353125 19.12625 0 19 C0 12.73 0 6.46 0 0 Z M3 3 C3.33 7.62 3.66 12.24 4 17 C7.465 16.505 7.465 16.505 11 16 C10.67 14.35 10.34 12.7 10 11 C8.68 11 7.36 11 6 11 C6 10.01 6 9.02 6 8 C7.65 7.67 9.3 7.34 11 7 C11 5.68 11 4.36 11 3 C8.36 3 5.72 3 3 3 Z " fill="#FBFCFC" transform="translate(163,267)"/>
<path d="M0 0 C3.0625 1.9375 3.0625 1.9375 5 5 C5.92359353 9.56024307 5.59379739 12.90375867 3.375 17 C0.40629624 19.49996106 -1.11933271 20 -5 20 C-9.34986291 18.5500457 -11.4325645 17.85115325 -14 14 C-14.82989594 9.33511124 -14.61181179 5.96705735 -12.0625 1.9375 C-7.94141507 -0.669717 -4.75058323 -1.03945854 0 0 Z M-10 4.5625 C-11.44746494 8.09069578 -10.99247239 10.36093456 -10 14 C-8.44202118 16.14782671 -8.44202118 16.14782671 -6 17 C-2.87319901 17.00674926 -2.87319901 17.00674926 0 16 C2.46324069 12.30513897 2.38991688 10.36706908 2 6 C1.08333333 3.91666667 1.08333333 3.91666667 -1 3 C-5.84723976 2.36652388 -5.84723976 2.36652388 -10 4.5625 Z " fill="#F9FAFA" transform="translate(129,267)"/>
<path d="M0 0 C10.4910108 -0.37027097 10.4910108 -0.37027097 12.86328125 1.35546875 C14 3 14 3 13.875 5.5 C13 8 13 8 10 11 C11.65 13.64 13.3 16.28 15 19 C12.1834702 18.91952772 10.51090251 18.52438279 8.51953125 16.48046875 C5.93791173 13.04554081 5.93791173 13.04554081 5 11 C5.33 10.01 5.66 9.02 6 8 C6.99 7.67 7.98 7.34 9 7 C9.73323796 4.98491642 9.73323796 4.98491642 10 3 C7.69 3 5.38 3 3 3 C3 8.28 3 13.56 3 19 C2.01 19 1.02 19 0 19 C0 12.73 0 6.46 0 0 Z " fill="#FBFCFC" transform="translate(181,267)"/>
<path d="M0 0 C4.83256305 0.41421969 6.82679218 2.46413986 10 6 C11.1446875 4.515 11.1446875 4.515 12.3125 3 C13.61328125 1.3125 13.61328125 1.3125 15 0 C15.99 0 16.98 0 18 0 C16.34832443 3.5786304 14.21713508 6.74820188 12 10 C12.433125 10.48210937 12.86625 10.96421875 13.3125 11.4609375 C13.869375 12.09257812 14.42625 12.72421875 15 13.375 C15.8353125 14.31472656 15.8353125 14.31472656 16.6875 15.2734375 C18 17 18 17 18 19 C13.16743695 18.58578031 11.17320782 16.53586014 8 13 C7.71125 13.61875 7.4225 14.2375 7.125 14.875 C6 17 6 17 4 19 C2.68 18.67 1.36 18.34 0 18 C1.98 15.69 3.96 13.38 6 11 C4.54955729 6.89041233 2.48889248 3.56741255 0 0 Z " fill="#FBFCFB" transform="translate(355,267)"/>
<path d="M0 0 C1.87988281 0.27954102 1.87988281 0.27954102 4 1 C5.09667969 2.55053711 5.09667969 2.55053711 5.921875 4.52734375 C6.22480469 5.23697266 6.52773437 5.94660156 6.83984375 6.67773438 C7.14019531 7.42345703 7.44054687 8.16917969 7.75 8.9375 C8.06582031 9.67935547 8.38164062 10.42121094 8.70703125 11.18554688 C11 16.65988569 11 16.65988569 11 19 C9.68 19 8.36 19 7 19 C6.67 17.35 6.34 15.7 6 14 C3.69 14 1.38 14 -1 14 C-0.67 13.01 -0.34 12.02 0 11 C1.32 11 2.64 11 4 11 C3.34 9.35 2.68 7.7 2 6 C0.1727089 8.74093665 -0.93698178 11.13825324 -2.125 14.1875 C-2.65480469 15.53908203 -2.65480469 15.53908203 -3.1953125 16.91796875 C-3.46085938 17.60503906 -3.72640625 18.29210937 -4 19 C-5.32 19 -6.64 19 -8 19 C-6.00386732 12.2813095 -3.2708579 6.19265192 0 0 Z " fill="#FCFCFC" transform="translate(220,267)"/>
<path d="M0 0 C0.99 0 1.98 0 3 0 C3.04898438 0.90363281 3.09796875 1.80726563 3.1484375 2.73828125 C3.22320312 3.91777344 3.29796875 5.09726562 3.375 6.3125 C3.44460937 7.48425781 3.51421875 8.65601563 3.5859375 9.86328125 C3.78613747 13.15699887 3.78613747 13.15699887 6 16 C7.98 15.67 9.96 15.34 12 15 C12.33 10.05 12.66 5.1 13 0 C14.32 0.33 15.64 0.66 17 1 C16.91299202 3.43922361 16.80613998 5.87478414 16.6875 8.3125 C16.66494141 9.00279297 16.64238281 9.69308594 16.61914062 10.40429688 C16.34711519 15.52332092 16.34711519 15.52332092 14.59765625 17.92578125 C12.2869994 19.47940138 10.80365195 19.87256127 8 20 C1.33333333 17.66666667 1.33333333 17.66666667 0 15 C-0.0716735 12.44842345 -0.09308442 9.92527029 -0.0625 7.375 C-0.05798828 6.66859375 -0.05347656 5.9621875 -0.04882812 5.234375 C-0.03703875 3.48954725 -0.01910324 1.744763 0 0 Z " fill="#FCFCFC" transform="translate(137,267)"/>
<path d="M0 0 C4.29 0 8.58 0 13 0 C13 0.99 13 1.98 13 3 C9.7 3 6.4 3 3 3 C3 4.65 3 6.3 3 8 C5.97 8 8.94 8 12 8 C12 8.99 12 9.98 12 11 C9.03 11 6.06 11 3 11 C3 12.98 3 14.96 3 17 C6.3 17 9.6 17 13 17 C13 17.66 13 18.32 13 19 C8.71 19 4.42 19 0 19 C0 12.73 0 6.46 0 0 Z " fill="#FBFCFB" transform="translate(312,267)"/>
<path d="M0 0 C4.29 0 8.58 0 13 0 C13 0.99 13 1.98 13 3 C9.7 3 6.4 3 3 3 C3 4.65 3 6.3 3 8 C5.64 8 8.28 8 11 8 C11 8.99 11 9.98 11 11 C8.36 11 5.72 11 3 11 C3 12.98 3 14.96 3 17 C6.3 17 9.6 17 13 17 C13 17.66 13 18.32 13 19 C8.71 19 4.42 19 0 19 C0 12.73 0 6.46 0 0 Z " fill="#FAFBFB" transform="translate(198,267)"/>
<path d="M0 0 C4.29 0 8.58 0 13 0 C13 0.99 13 1.98 13 3 C10.03 3 7.06 3 4 3 C4 4.65 4 6.3 4 8 C6.97 8 9.94 8 13 8 C13 8.99 13 9.98 13 11 C10.03 11 7.06 11 4 11 C4 13.64 4 16.28 4 19 C2.68 19 1.36 19 0 19 C0 12.73 0 6.46 0 0 Z " fill="#F9FCFB" transform="translate(334,267)"/>
<path d="M0 0 C1.75 0.0625 1.75 0.0625 4 1 C5.59501537 3.24164322 6.74543018 5.53566643 8 8 C9.65 5.36 11.3 2.72 13 0 C14.32 0.33 15.64 0.66 17 1 C16.57847656 1.6290625 16.15695313 2.258125 15.72265625 2.90625 C12.19374867 8.41964913 10.24309615 12.43640403 10 19 C8.68 19 7.36 19 6 19 C5.85304688 18.03900391 5.85304688 18.03900391 5.703125 17.05859375 C4.68724966 11.18228035 3.15104904 7.04167846 0 2 C0 1.34 0 0.68 0 0 Z " fill="#F6F8F7" transform="translate(97,267)"/>
<path d="M0 0 C4.95 0 9.9 0 15 0 C15 0.99 15 1.98 15 3 C13.02 3 11.04 3 9 3 C9 8.28 9 13.56 9 19 C8.01 19 7.02 19 6 19 C6 13.72 6 8.44 6 3 C4.02 3 2.04 3 0 3 C0 2.01 0 1.02 0 0 Z " fill="#FAFCFB" transform="translate(388,267)"/>
<path d="M0 0 C4.95 0 9.9 0 15 0 C15 0.99 15 1.98 15 3 C13.02 3 11.04 3 9 3 C9 8.28 9 13.56 9 19 C8.01 19 7.02 19 6 19 C6 13.72 6 8.44 6 3 C4.02 3 2.04 3 0 3 C0 2.01 0 1.02 0 0 Z " fill="#FAFCFB" transform="translate(264,267)"/>
<path d="M0 0 C1.32 0.33 2.64 0.66 4 1 C1.69 3.31 -0.62 5.62 -3 8 C-1.55311454 10.89377093 -0.24918136 13.18533078 1.625 15.75 C2.07101563 16.36359375 2.51703125 16.9771875 2.9765625 17.609375 C3.31429687 18.06828125 3.65203125 18.5271875 4 19 C1.18662821 18.91725377 -0.55159548 18.38155522 -2.703125 16.55078125 C-6.89942053 12.03093957 -6.89942053 12.03093957 -7.25 8.4375 C-5.51085741 5.04617195 -3.2698471 2.03695393 0 0 Z " fill="#FAFBFB" transform="translate(245,267)"/>
<path d="M0 0 C0.99 0 1.98 0 3 0 C3 0.99 3 1.98 3 3 C2.34 3 1.68 3 1 3 C1 4.32 1 5.64 1 7 C0.01 7.495 0.01 7.495 -1 8 C-1.99 9.485 -1.99 9.485 -3 11 C-4.65 10.67 -6.3 10.34 -8 10 C-8 7.69 -8 5.38 -8 3 C-6.865625 2.690625 -5.73125 2.38125 -4.5625 2.0625 C-1.21224901 1.37075469 -1.21224901 1.37075469 0 0 Z " fill="#CACACC" transform="translate(53,212)"/>
<path d="M0 0 C0.99 0 1.98 0 3 0 C3 6.27 3 12.54 3 19 C2.01 19 1.02 19 0 19 C0 12.73 0 6.46 0 0 Z " fill="#FAFBFB" transform="translate(233,267)"/>
<path d="M0 0 C0.99 0 1.98 0 3 0 C3 6.27 3 12.54 3 19 C2.01 19 1.02 19 0 19 C0 12.73 0 6.46 0 0 Z " fill="#FBFCFC" transform="translate(382,267)"/>
<path d="M0 0 C0.99 0 1.98 0 3 0 C3 6.27 3 12.54 3 19 C2.01 19 1.02 19 0 19 C0 12.73 0 6.46 0 0 Z " fill="#F9FAFA" transform="translate(350,267)"/>
<path d="M0 0 C0.99 0 1.98 0 3 0 C3 6.27 3 12.54 3 19 C2.01 19 1.02 19 0 19 C0 12.73 0 6.46 0 0 Z " fill="#FCFDFD" transform="translate(258,267)"/>
<path d="M0 0 C0.33 0 0.66 0 1 0 C1.95348275 4.76741373 2.16407956 9.15965284 2 14 C1 15 1 15 -2.5625 15.0625 C-3.696875 15.041875 -4.83125 15.02125 -6 15 C-6.33 14.34 -6.66 13.68 -7 13 C-5.68 12.67 -4.36 12.34 -3 12 C-2.87625 11.319375 -2.7525 10.63875 -2.625 9.9375 C-1.90899123 6.5722588 -0.97054875 3.29986575 0 0 Z " fill="#EAF5FA" transform="translate(279,239)"/>
<path d="M0 0 C2 3 2 3 2 7 C4.475 7.495 4.475 7.495 7 8 C5.25 9.5625 5.25 9.5625 3 11 C1.12988281 10.60961914 1.12988281 10.60961914 -1 10 C-2.439735 9.85966422 -3.88337149 9.75583143 -5.328125 9.68359375 C-6.12734375 9.64169922 -6.9265625 9.59980469 -7.75 9.55664062 C-8.9875 9.49766602 -8.9875 9.49766602 -10.25 9.4375 C-11.09046875 9.39431641 -11.9309375 9.35113281 -12.796875 9.30664062 C-14.86440671 9.20091457 -16.93218281 9.09998705 -19 9 C-19 8.67 -19 8.34 -19 8 C-12.73 7.67 -6.46 7.34 0 7 C0 4.69 0 2.38 0 0 Z " fill="#F1F5F1" transform="translate(179,235)"/>
<path d="M0 0 C1.32 1.32 2.64 2.64 4 4 C2.25 8.875 2.25 8.875 0 10 C-1.99960012 10.039992 -4.00047242 10.04346799 -6 10 C-4.68 9.67 -3.36 9.34 -2 9 C-2.04125 8.071875 -2.0825 7.14375 -2.125 6.1875 C-2 3 -2 3 0 0 Z " fill="#EAF0F2" transform="translate(76,214)"/>
<path d="M0 0 C0.45375 0.474375 0.9075 0.94875 1.375 1.4375 C2.93258204 3.09027808 2.93258204 3.09027808 5 4 C5 4.66 5 5.32 5 6 C4.34 6 3.68 6 3 6 C3 7.65 3 9.3 3 11 C1.68 10.67 0.36 10.34 -1 10 C-0.34 9.67 0.32 9.34 1 9 C1 8.01 1 7.02 1 6 C-5.93 5.505 -5.93 5.505 -13 5 C-13 4.67 -13 4.34 -13 4 C-12.22914063 3.93941406 -11.45828125 3.87882813 -10.6640625 3.81640625 C-9.66117188 3.73261719 -8.65828125 3.64882812 -7.625 3.5625 C-6.62726563 3.48128906 -5.62953125 3.40007812 -4.6015625 3.31640625 C-2.02072387 3.15034374 -2.02072387 3.15034374 0 2 C0 1.34 0 0.68 0 0 Z " fill="#EEF3F3" transform="translate(218,233)"/>
<path d="M0 0 C0.66 0 1.32 0 2 0 C1.125 5.875 1.125 5.875 0 7 C-2.67058851 7.14115161 -5.32432238 7.04247107 -8 7 C-8 6.67 -8 6.34 -8 6 C-6.35 6 -4.7 6 -3 6 C-3 5.01 -3 4.02 -3 3 C-2.34 3 -1.68 3 -1 3 C-0.67 2.01 -0.34 1.02 0 0 Z " fill="#EDF3F5" transform="translate(148,231)"/>
<path d="M0 0 C0.33 0 0.66 0 1 0 C1.04254356 1.99954746 1.04080783 4.00041636 1 6 C0 7 0 7 -3.5625 7.0625 C-4.696875 7.041875 -5.83125 7.02125 -7 7 C-7.33 6.34 -7.66 5.68 -8 5 C-6.865625 4.731875 -5.73125 4.46375 -4.5625 4.1875 C-3.386875 3.795625 -2.21125 3.40375 -1 3 C-0.67 2.01 -0.34 1.02 0 0 Z " fill="#B7D1D4" transform="translate(280,247)"/>
<path d="M0 0 C2.97 0 5.94 0 9 0 C9 0.99 9 1.98 9 3 C5.625 3.1875 5.625 3.1875 2 3 C1.34 2.01 0.68 1.02 0 0 Z " fill="#F3F5F4" transform="translate(394,267)"/>
<path d="M0 0 C0.99 0 1.98 0 3 0 C3 2.31 3 4.62 3 7 C2.01 7 1.02 7 0 7 C0 4.69 0 2.38 0 0 Z " fill="#312923" transform="translate(45,215)"/>
<path d="M0 0 C0.33 0 0.66 0 1 0 C1.66 3.63 2.32 7.26 3 11 C2.01 11 1.02 11 0 11 C-0.66 10.34 -1.32 9.68 -2 9 C-1.34 9 -0.68 9 0 9 C0 6.03 0 3.06 0 0 Z " fill="#ECF6F8" transform="translate(391,240)"/>
<path d="M0 0 C1.98 0 3.96 0 6 0 C6 0.99 6 1.98 6 3 C4.02 3 2.04 3 0 3 C0 2.01 0 1.02 0 0 Z " fill="#F7F8F7" transform="translate(341,275)"/>
<path d="M0 0 C0 0.66 0 1.32 0 2 C1.32 2.33 2.64 2.66 4 3 C-0.29 3 -4.58 3 -9 3 C-9 2.67 -9 2.34 -9 2 C-2.25 0 -2.25 0 0 0 Z " fill="#EEF4F8" transform="translate(291,235)"/>
<path d="M0 0 C0.33 0.66 0.66 1.32 1 2 C0.34 1.67 -0.32 1.34 -1 1 C-0.67 0.67 -0.34 0.34 0 0 Z " fill="#FFFFFF" transform="translate(282,225)"/>
<path d="" fill="#DFFFFF" transform="translate(0,0)"/>
<path d="" fill="#FFFFFF" transform="translate(0,0)"/>
<path d="" fill="#FFFFFF" transform="translate(0,0)"/>
<path d="" fill="#FFFFFF" transform="translate(0,0)"/>
<path d="" fill="#FFFFFF" transform="translate(0,0)"/>
<path d="" fill="#FFFFFF" transform="translate(0,0)"/>
</svg>
